<svg width="751" height="184" xmlns="http://www.w3.org/2000/svg" xmlns:xlink="http://www.w3.org/1999/xlink"><defs><path id="a" d="M.334.097h110.781v101.64H.335z"/><path id="c" d="M0 .381h217.31V184H0z"/></defs><g fill="none" fill-rule="evenodd"><path fill="#004397" d="M361.544 42.437V97.81l-46.261-55.373h-31.67v100.288h29.598V84.716l48.333 58.009h29.6V42.437zm46.703 100.288h30.324V42.437h-30.324zM538.62 66.049c0-12.806-5.223-23.598-19.237-23.598H455.28v22.663h47.034c3.234 0 5.384 1.63 5.415 7.366-.03 5.742-2.18 7.387-5.415 7.387H455.28v62.858h30.35v-40.192h33.753c14.014 0 19.236-10.81 19.236-23.615v-12.87m89.386.001c0-12.806-5.181-23.598-19.223-23.598H547.23v22.663h44.487c3.261 0 5.366 1.63 5.405 7.366-.039 5.742-2.144 7.387-5.405 7.387H547.23v21.904l42.695 40.954h40.651l-45.501-40.192h23.707c14.042 0 19.223-10.81 19.223-23.615v-12.87"/><g transform="translate(639 40.619)"><mask id="b" fill="#fff"><use xlink:href="#a"/></mask><path d="M111.115 50.894c0 49.908-3.81 50.843-55.419 50.843-51.553 0-55.362-.935-55.362-50.843C.334 1.042 4.144.097 55.696.097c51.61 0 55.42.945 55.42 50.797zM79.986 27.939c0-2.235-1.785-4.048-4.006-4.048H35.862c-2.227 0-4.056 1.813-4.056 4.048v45.966c0 2.21 1.83 4.023 4.056 4.023H75.98c2.221 0 4.006-1.813 4.006-4.023V27.939z" fill="#004397" mask="url(#b)"/></g><g transform="translate(0 -.381)"><mask id="d" fill="#fff"><use xlink:href="#c"/></mask><path d="M0 128.033V46.205C0 19.71 22.58.721 42.855.721c20.294 0 30.756 8.185 38.618 17.333 7.85 9.165 102.44 121.432 102.44 121.432l2.61 3.09c4.896 5.801 13.571 6.54 19.373 1.64 5.801-4.896 6.538-13.569 1.641-19.37l-.946-1.118-68.145-80.8c-8.502-10.466-24.568-5.874-24.568 6.89 0 0-4.3-5.102-4.565-5.412.4-36.589 27.588-44.025 41.867-44.025 14.39 0 21.28 3.278 33.711 17.673 12.444 14.408 32.42 38.944 32.42 38.944v82.488c0 26.184-20.932 44.514-42.537 44.514-21.612 0-30.454-7.528-38.31-16.699-7.76-9.06-96.795-114.408-106.073-125.654l-.12-.15c-4.806-5.693-13.317-6.414-19.012-1.61-5.695 4.804-6.415 13.315-1.61 19.015l.184.211 72.293 85.612c8.245 6.98 22.948 1.051 23.26-7.65.412.481 4.244 5.025 4.244 5.025 0 22.58-15.72 41.9-44.186 41.9-16.382 0-24.216-7.52-32.079-16.686C25.502 158.142 0 128.034 0 128.034" fill="#004397" mask="url(#d)"/></g></g></svg>
